<mxfile host="app.diagrams.net" modified="2022-02-14T20:05:02.836Z" agent="5.0 (Windows NT 10.0; Win64; x64) AppleWebKit/537.36 (KHTML, like Gecko) Chrome/98.0.4758.80 Safari/537.36 Edg/98.0.1108.50" etag="dRK0TlKI6vCDl2ycyQlf" version="16.5.6" type="github">
  <diagram id="Ibir1PBFGr4VTLwPfgsz" name="Page-1">
    <mxGraphModel dx="2170" dy="1230" grid="1" gridSize="10" guides="1" tooltips="1" connect="1" arrows="1" fold="1" page="1" pageScale="1" pageWidth="827" pageHeight="1169" math="0" shadow="0">
      <root>
        <mxCell id="0" />
        <mxCell id="1" parent="0" />
        <mxCell id="YFodK5tRQj8HDyV5Xvsf-118" value="" style="swimlane;shadow=0;strokeColor=#4277BB;fillColor=#ffffff;fontColor=#4277BB;align=right;startSize=0;collapsible=0;strokeWidth=3;" vertex="1" parent="1">
          <mxGeometry x="70" y="302" width="100" height="100" as="geometry" />
        </mxCell>
        <mxCell id="YFodK5tRQj8HDyV5Xvsf-119" value="CUSTOMERS" style="aspect=fixed;perimeter=ellipsePerimeter;html=1;align=center;shadow=0;dashed=0;image;image=img/lib/ibm/applications/microservice.svg;labelBackgroundColor=#ffffff;strokeColor=#666666;strokeWidth=3;fillColor=#C2952D;gradientColor=none;fontSize=12;fontColor=#4277BB;" vertex="1" parent="YFodK5tRQj8HDyV5Xvsf-118">
          <mxGeometry x="9" y="10" width="82" height="60" as="geometry" />
        </mxCell>
        <mxCell id="YFodK5tRQj8HDyV5Xvsf-120" value="" style="swimlane;shadow=0;strokeColor=#4277BB;fillColor=#ffffff;fontColor=#4277BB;align=right;startSize=0;collapsible=0;strokeWidth=3;" vertex="1" parent="1">
          <mxGeometry x="208.5" y="302" width="100" height="100" as="geometry" />
        </mxCell>
        <mxCell id="YFodK5tRQj8HDyV5Xvsf-121" value="PROFILES" style="aspect=fixed;perimeter=ellipsePerimeter;html=1;align=center;shadow=0;dashed=0;image;image=img/lib/ibm/applications/microservice.svg;labelBackgroundColor=#ffffff;strokeColor=#666666;strokeWidth=3;fillColor=#C2952D;gradientColor=none;fontSize=12;fontColor=#4277BB;" vertex="1" parent="YFodK5tRQj8HDyV5Xvsf-120">
          <mxGeometry x="9" y="10" width="82" height="60" as="geometry" />
        </mxCell>
        <mxCell id="YFodK5tRQj8HDyV5Xvsf-122" value="" style="swimlane;shadow=0;strokeColor=#4277BB;fillColor=#ffffff;fontColor=#4277BB;align=right;startSize=0;collapsible=0;strokeWidth=3;" vertex="1" parent="1">
          <mxGeometry x="1052.5" y="302" width="100" height="100" as="geometry" />
        </mxCell>
        <mxCell id="YFodK5tRQj8HDyV5Xvsf-123" value="CHARGE" style="aspect=fixed;perimeter=ellipsePerimeter;html=1;align=center;shadow=0;dashed=0;image;image=img/lib/ibm/applications/microservice.svg;labelBackgroundColor=#ffffff;strokeColor=#666666;strokeWidth=3;fillColor=#C2952D;gradientColor=none;fontSize=12;fontColor=#4277BB;" vertex="1" parent="YFodK5tRQj8HDyV5Xvsf-122">
          <mxGeometry x="9" y="10" width="82" height="60" as="geometry" />
        </mxCell>
        <mxCell id="YFodK5tRQj8HDyV5Xvsf-152" style="edgeStyle=orthogonalEdgeStyle;rounded=0;orthogonalLoop=1;jettySize=auto;html=1;entryX=0.5;entryY=1;entryDx=0;entryDy=0;entryPerimeter=0;" edge="1" parent="1" source="YFodK5tRQj8HDyV5Xvsf-124" target="YFodK5tRQj8HDyV5Xvsf-151">
          <mxGeometry relative="1" as="geometry" />
        </mxCell>
        <mxCell id="YFodK5tRQj8HDyV5Xvsf-124" value="CONFIG SERVER" style="aspect=fixed;perimeter=ellipsePerimeter;html=1;align=center;shadow=0;dashed=0;image;image=img/lib/ibm/applications/microservice.svg;labelBackgroundColor=#ffffff;strokeColor=#666666;strokeWidth=3;fillColor=#C2952D;gradientColor=none;fontSize=12;fontColor=#4277BB;" vertex="1" parent="1">
          <mxGeometry x="570" y="170" width="82" height="60" as="geometry" />
        </mxCell>
        <mxCell id="YFodK5tRQj8HDyV5Xvsf-126" value="" style="swimlane;shadow=0;strokeColor=#4277BB;fillColor=#ffffff;fontColor=#4277BB;align=right;startSize=0;collapsible=0;strokeWidth=3;" vertex="1" parent="1">
          <mxGeometry x="488.5" y="302" width="100" height="100" as="geometry" />
        </mxCell>
        <mxCell id="YFodK5tRQj8HDyV5Xvsf-127" value="BALANCE&lt;br&gt;INQUIRY" style="aspect=fixed;perimeter=ellipsePerimeter;html=1;align=center;shadow=0;dashed=0;image;image=img/lib/ibm/applications/microservice.svg;labelBackgroundColor=#ffffff;strokeColor=#666666;strokeWidth=3;fillColor=#C2952D;gradientColor=none;fontSize=12;fontColor=#4277BB;" vertex="1" parent="YFodK5tRQj8HDyV5Xvsf-126">
          <mxGeometry x="9" y="10" width="82" height="60" as="geometry" />
        </mxCell>
        <mxCell id="YFodK5tRQj8HDyV5Xvsf-128" value="" style="swimlane;shadow=0;strokeColor=#4277BB;fillColor=#ffffff;fontColor=#4277BB;align=right;startSize=0;collapsible=0;strokeWidth=3;" vertex="1" parent="1">
          <mxGeometry x="908.5" y="302" width="100" height="100" as="geometry" />
        </mxCell>
        <mxCell id="YFodK5tRQj8HDyV5Xvsf-129" value="WITHDRAW AND&lt;br&gt;DEPOSIT MONEY" style="aspect=fixed;perimeter=ellipsePerimeter;html=1;align=center;shadow=0;dashed=0;image;image=img/lib/ibm/applications/microservice.svg;labelBackgroundColor=#ffffff;strokeColor=#666666;strokeWidth=3;fillColor=#C2952D;gradientColor=none;fontSize=12;fontColor=#4277BB;" vertex="1" parent="YFodK5tRQj8HDyV5Xvsf-128">
          <mxGeometry x="9" y="10" width="82" height="60" as="geometry" />
        </mxCell>
        <mxCell id="YFodK5tRQj8HDyV5Xvsf-132" style="edgeStyle=orthogonalEdgeStyle;rounded=0;orthogonalLoop=1;jettySize=auto;html=1;exitX=0.5;exitY=0;exitDx=0;exitDy=0;entryX=1;entryY=0.5;entryDx=0;entryDy=0;" edge="1" parent="1" source="YFodK5tRQj8HDyV5Xvsf-129" target="YFodK5tRQj8HDyV5Xvsf-124">
          <mxGeometry relative="1" as="geometry" />
        </mxCell>
        <mxCell id="YFodK5tRQj8HDyV5Xvsf-133" style="edgeStyle=orthogonalEdgeStyle;rounded=0;orthogonalLoop=1;jettySize=auto;html=1;exitX=0.5;exitY=0;exitDx=0;exitDy=0;entryX=1;entryY=0.5;entryDx=0;entryDy=0;" edge="1" parent="1" source="YFodK5tRQj8HDyV5Xvsf-123" target="YFodK5tRQj8HDyV5Xvsf-124">
          <mxGeometry relative="1" as="geometry" />
        </mxCell>
        <mxCell id="YFodK5tRQj8HDyV5Xvsf-134" value="" style="swimlane;shadow=0;strokeColor=#4277BB;fillColor=#ffffff;fontColor=#4277BB;align=right;startSize=0;collapsible=0;strokeWidth=3;" vertex="1" parent="1">
          <mxGeometry x="628.5" y="302" width="100" height="100" as="geometry" />
        </mxCell>
        <mxCell id="YFodK5tRQj8HDyV5Xvsf-135" value="MOVEMENT&lt;br&gt;INQUIRIES" style="aspect=fixed;perimeter=ellipsePerimeter;html=1;align=center;shadow=0;dashed=0;image;image=img/lib/ibm/applications/microservice.svg;labelBackgroundColor=#ffffff;strokeColor=#666666;strokeWidth=3;fillColor=#C2952D;gradientColor=none;fontSize=12;fontColor=#4277BB;" vertex="1" parent="YFodK5tRQj8HDyV5Xvsf-134">
          <mxGeometry x="9" y="10" width="82" height="60" as="geometry" />
        </mxCell>
        <mxCell id="YFodK5tRQj8HDyV5Xvsf-136" value="" style="swimlane;shadow=0;strokeColor=#4277BB;fillColor=#ffffff;fontColor=#4277BB;align=right;startSize=0;collapsible=0;strokeWidth=3;" vertex="1" parent="1">
          <mxGeometry x="768.5" y="300" width="100" height="100" as="geometry" />
        </mxCell>
        <mxCell id="YFodK5tRQj8HDyV5Xvsf-137" value="CREDIT&lt;br&gt;TRANSACTIONS" style="aspect=fixed;perimeter=ellipsePerimeter;html=1;align=center;shadow=0;dashed=0;image;image=img/lib/ibm/applications/microservice.svg;labelBackgroundColor=#ffffff;strokeColor=#666666;strokeWidth=3;fillColor=#C2952D;gradientColor=none;fontSize=12;fontColor=#4277BB;" vertex="1" parent="YFodK5tRQj8HDyV5Xvsf-136">
          <mxGeometry x="9" y="10" width="82" height="60" as="geometry" />
        </mxCell>
        <mxCell id="YFodK5tRQj8HDyV5Xvsf-139" style="edgeStyle=orthogonalEdgeStyle;rounded=0;orthogonalLoop=1;jettySize=auto;html=1;exitX=0.5;exitY=0;exitDx=0;exitDy=0;entryX=1;entryY=0.5;entryDx=0;entryDy=0;" edge="1" parent="1" source="YFodK5tRQj8HDyV5Xvsf-137" target="YFodK5tRQj8HDyV5Xvsf-124">
          <mxGeometry relative="1" as="geometry" />
        </mxCell>
        <mxCell id="YFodK5tRQj8HDyV5Xvsf-140" value="" style="swimlane;shadow=0;strokeColor=#4277BB;fillColor=#ffffff;fontColor=#4277BB;align=right;startSize=0;collapsible=0;strokeWidth=3;" vertex="1" parent="1">
          <mxGeometry x="350" y="300" width="100" height="100" as="geometry" />
        </mxCell>
        <mxCell id="YFodK5tRQj8HDyV5Xvsf-141" value="ACCOUNTS" style="aspect=fixed;perimeter=ellipsePerimeter;html=1;align=center;shadow=0;dashed=0;image;image=img/lib/ibm/applications/microservice.svg;labelBackgroundColor=#ffffff;strokeColor=#666666;strokeWidth=3;fillColor=#C2952D;gradientColor=none;fontSize=12;fontColor=#4277BB;" vertex="1" parent="YFodK5tRQj8HDyV5Xvsf-140">
          <mxGeometry x="9" y="10" width="82" height="60" as="geometry" />
        </mxCell>
        <mxCell id="YFodK5tRQj8HDyV5Xvsf-145" style="edgeStyle=orthogonalEdgeStyle;rounded=0;orthogonalLoop=1;jettySize=auto;html=1;" edge="1" parent="1" source="YFodK5tRQj8HDyV5Xvsf-135" target="YFodK5tRQj8HDyV5Xvsf-124">
          <mxGeometry relative="1" as="geometry" />
        </mxCell>
        <mxCell id="YFodK5tRQj8HDyV5Xvsf-146" style="edgeStyle=orthogonalEdgeStyle;rounded=0;orthogonalLoop=1;jettySize=auto;html=1;exitX=0.5;exitY=0;exitDx=0;exitDy=0;" edge="1" parent="1" source="YFodK5tRQj8HDyV5Xvsf-127">
          <mxGeometry relative="1" as="geometry">
            <mxPoint x="610" y="230" as="targetPoint" />
          </mxGeometry>
        </mxCell>
        <mxCell id="YFodK5tRQj8HDyV5Xvsf-147" style="edgeStyle=orthogonalEdgeStyle;rounded=0;orthogonalLoop=1;jettySize=auto;html=1;exitX=0.5;exitY=0;exitDx=0;exitDy=0;entryX=0;entryY=0.5;entryDx=0;entryDy=0;" edge="1" parent="1" source="YFodK5tRQj8HDyV5Xvsf-141" target="YFodK5tRQj8HDyV5Xvsf-124">
          <mxGeometry relative="1" as="geometry" />
        </mxCell>
        <mxCell id="YFodK5tRQj8HDyV5Xvsf-149" style="edgeStyle=orthogonalEdgeStyle;rounded=0;orthogonalLoop=1;jettySize=auto;html=1;entryX=0;entryY=0.5;entryDx=0;entryDy=0;exitX=0.5;exitY=0;exitDx=0;exitDy=0;" edge="1" parent="1" source="YFodK5tRQj8HDyV5Xvsf-119" target="YFodK5tRQj8HDyV5Xvsf-124">
          <mxGeometry relative="1" as="geometry" />
        </mxCell>
        <mxCell id="YFodK5tRQj8HDyV5Xvsf-150" style="edgeStyle=orthogonalEdgeStyle;rounded=0;orthogonalLoop=1;jettySize=auto;html=1;exitX=0.5;exitY=0;exitDx=0;exitDy=0;entryX=0;entryY=0.5;entryDx=0;entryDy=0;" edge="1" parent="1" source="YFodK5tRQj8HDyV5Xvsf-121" target="YFodK5tRQj8HDyV5Xvsf-124">
          <mxGeometry relative="1" as="geometry" />
        </mxCell>
        <mxCell id="YFodK5tRQj8HDyV5Xvsf-151" value="" style="verticalLabelPosition=bottom;html=1;verticalAlign=top;align=center;strokeColor=none;fillColor=#00BEF2;shape=mxgraph.azure.git_repository;" vertex="1" parent="1">
          <mxGeometry x="586" y="80" width="50" height="50" as="geometry" />
        </mxCell>
        <mxCell id="YFodK5tRQj8HDyV5Xvsf-153" value="C_CUSTOMERS" style="aspect=fixed;perimeter=ellipsePerimeter;html=1;align=center;shadow=0;dashed=0;fontColor=#4277BB;labelBackgroundColor=#ffffff;fontSize=12;spacingTop=3;image;image=img/lib/ibm/data/data_services.svg;" vertex="1" parent="1">
          <mxGeometry x="90" y="450" width="60" height="60" as="geometry" />
        </mxCell>
        <mxCell id="YFodK5tRQj8HDyV5Xvsf-154" value="C_PROFILES" style="aspect=fixed;perimeter=ellipsePerimeter;html=1;align=center;shadow=0;dashed=0;fontColor=#4277BB;labelBackgroundColor=#ffffff;fontSize=12;spacingTop=3;image;image=img/lib/ibm/data/data_services.svg;" vertex="1" parent="1">
          <mxGeometry x="228.5" y="450" width="60" height="60" as="geometry" />
        </mxCell>
        <mxCell id="YFodK5tRQj8HDyV5Xvsf-155" value="C_CHARGE" style="aspect=fixed;perimeter=ellipsePerimeter;html=1;align=center;shadow=0;dashed=0;fontColor=#4277BB;labelBackgroundColor=#ffffff;fontSize=12;spacingTop=3;image;image=img/lib/ibm/data/data_services.svg;" vertex="1" parent="1">
          <mxGeometry x="1072.5" y="452" width="60" height="60" as="geometry" />
        </mxCell>
        <mxCell id="YFodK5tRQj8HDyV5Xvsf-156" value="C_BALANCE-INQUIRY" style="aspect=fixed;perimeter=ellipsePerimeter;html=1;align=center;shadow=0;dashed=0;fontColor=#4277BB;labelBackgroundColor=#ffffff;fontSize=12;spacingTop=3;image;image=img/lib/ibm/data/data_services.svg;" vertex="1" parent="1">
          <mxGeometry x="508.5" y="452" width="60" height="60" as="geometry" />
        </mxCell>
        <mxCell id="YFodK5tRQj8HDyV5Xvsf-157" value="C_WITHDRAW-DEPOSIT" style="aspect=fixed;perimeter=ellipsePerimeter;html=1;align=center;shadow=0;dashed=0;fontColor=#4277BB;labelBackgroundColor=#ffffff;fontSize=12;spacingTop=3;image;image=img/lib/ibm/data/data_services.svg;direction=south;" vertex="1" parent="1">
          <mxGeometry x="928.5" y="452" width="60" height="60" as="geometry" />
        </mxCell>
        <mxCell id="YFodK5tRQj8HDyV5Xvsf-158" value="C_MOVEMENT-INQUIRIES" style="aspect=fixed;perimeter=ellipsePerimeter;html=1;align=center;shadow=0;dashed=0;fontColor=#4277BB;labelBackgroundColor=#ffffff;fontSize=12;spacingTop=3;image;image=img/lib/ibm/data/data_services.svg;" vertex="1" parent="1">
          <mxGeometry x="648.5" y="452" width="60" height="60" as="geometry" />
        </mxCell>
        <mxCell id="YFodK5tRQj8HDyV5Xvsf-159" value="C_TRANSACTIONS" style="aspect=fixed;perimeter=ellipsePerimeter;html=1;align=center;shadow=0;dashed=0;fontColor=#4277BB;labelBackgroundColor=#ffffff;fontSize=12;spacingTop=3;image;image=img/lib/ibm/data/data_services.svg;" vertex="1" parent="1">
          <mxGeometry x="788.5" y="450" width="60" height="60" as="geometry" />
        </mxCell>
        <mxCell id="YFodK5tRQj8HDyV5Xvsf-160" value="C_ACCOUNTS" style="aspect=fixed;perimeter=ellipsePerimeter;html=1;align=center;shadow=0;dashed=0;fontColor=#4277BB;labelBackgroundColor=#ffffff;fontSize=12;spacingTop=3;image;image=img/lib/ibm/data/data_services.svg;" vertex="1" parent="1">
          <mxGeometry x="370" y="452" width="60" height="60" as="geometry" />
        </mxCell>
        <mxCell id="YFodK5tRQj8HDyV5Xvsf-161" style="edgeStyle=orthogonalEdgeStyle;rounded=0;orthogonalLoop=1;jettySize=auto;html=1;" edge="1" parent="1" source="YFodK5tRQj8HDyV5Xvsf-141" target="YFodK5tRQj8HDyV5Xvsf-160">
          <mxGeometry relative="1" as="geometry" />
        </mxCell>
        <mxCell id="YFodK5tRQj8HDyV5Xvsf-162" style="edgeStyle=orthogonalEdgeStyle;rounded=0;orthogonalLoop=1;jettySize=auto;html=1;exitX=0.5;exitY=1;exitDx=0;exitDy=0;" edge="1" parent="1" source="YFodK5tRQj8HDyV5Xvsf-119" target="YFodK5tRQj8HDyV5Xvsf-153">
          <mxGeometry relative="1" as="geometry" />
        </mxCell>
        <mxCell id="YFodK5tRQj8HDyV5Xvsf-163" style="edgeStyle=orthogonalEdgeStyle;rounded=0;orthogonalLoop=1;jettySize=auto;html=1;exitX=0.5;exitY=1;exitDx=0;exitDy=0;" edge="1" parent="1" source="YFodK5tRQj8HDyV5Xvsf-121" target="YFodK5tRQj8HDyV5Xvsf-154">
          <mxGeometry relative="1" as="geometry" />
        </mxCell>
        <mxCell id="YFodK5tRQj8HDyV5Xvsf-164" style="edgeStyle=orthogonalEdgeStyle;rounded=0;orthogonalLoop=1;jettySize=auto;html=1;exitX=0.5;exitY=1;exitDx=0;exitDy=0;" edge="1" parent="1" source="YFodK5tRQj8HDyV5Xvsf-127" target="YFodK5tRQj8HDyV5Xvsf-156">
          <mxGeometry relative="1" as="geometry" />
        </mxCell>
        <mxCell id="YFodK5tRQj8HDyV5Xvsf-165" style="edgeStyle=orthogonalEdgeStyle;rounded=0;orthogonalLoop=1;jettySize=auto;html=1;exitX=0.5;exitY=1;exitDx=0;exitDy=0;" edge="1" parent="1" source="YFodK5tRQj8HDyV5Xvsf-135" target="YFodK5tRQj8HDyV5Xvsf-158">
          <mxGeometry relative="1" as="geometry" />
        </mxCell>
        <mxCell id="YFodK5tRQj8HDyV5Xvsf-166" style="edgeStyle=orthogonalEdgeStyle;rounded=0;orthogonalLoop=1;jettySize=auto;html=1;exitX=0.5;exitY=1;exitDx=0;exitDy=0;" edge="1" parent="1" source="YFodK5tRQj8HDyV5Xvsf-137" target="YFodK5tRQj8HDyV5Xvsf-159">
          <mxGeometry relative="1" as="geometry" />
        </mxCell>
        <mxCell id="YFodK5tRQj8HDyV5Xvsf-167" style="edgeStyle=orthogonalEdgeStyle;rounded=0;orthogonalLoop=1;jettySize=auto;html=1;exitX=0.5;exitY=1;exitDx=0;exitDy=0;" edge="1" parent="1" source="YFodK5tRQj8HDyV5Xvsf-129" target="YFodK5tRQj8HDyV5Xvsf-157">
          <mxGeometry relative="1" as="geometry" />
        </mxCell>
        <mxCell id="YFodK5tRQj8HDyV5Xvsf-168" style="edgeStyle=orthogonalEdgeStyle;rounded=0;orthogonalLoop=1;jettySize=auto;html=1;exitX=0.5;exitY=1;exitDx=0;exitDy=0;" edge="1" parent="1" source="YFodK5tRQj8HDyV5Xvsf-123" target="YFodK5tRQj8HDyV5Xvsf-155">
          <mxGeometry relative="1" as="geometry" />
        </mxCell>
        <mxCell id="YFodK5tRQj8HDyV5Xvsf-169" value="" style="outlineConnect=0;dashed=0;verticalLabelPosition=bottom;verticalAlign=top;align=center;html=1;shape=mxgraph.aws3.api_gateway;fillColor=#D9A741;gradientColor=none;" vertex="1" parent="1">
          <mxGeometry x="1280" y="300" width="76.5" height="93" as="geometry" />
        </mxCell>
        <mxCell id="YFodK5tRQj8HDyV5Xvsf-172" style="edgeStyle=orthogonalEdgeStyle;rounded=0;orthogonalLoop=1;jettySize=auto;html=1;" edge="1" parent="1" source="YFodK5tRQj8HDyV5Xvsf-170" target="YFodK5tRQj8HDyV5Xvsf-169">
          <mxGeometry relative="1" as="geometry" />
        </mxCell>
        <mxCell id="YFodK5tRQj8HDyV5Xvsf-170" value="DEVICES" style="aspect=fixed;perimeter=ellipsePerimeter;html=1;align=center;shadow=0;dashed=0;image;image=img/lib/ibm/users/device.svg;labelBackgroundColor=#ffffff;strokeColor=#666666;strokeWidth=3;fillColor=#C2952D;gradientColor=none;fontSize=12;fontColor=#4277BB;" vertex="1" parent="1">
          <mxGeometry x="1460" y="460" width="60" height="60" as="geometry" />
        </mxCell>
        <mxCell id="YFodK5tRQj8HDyV5Xvsf-173" style="edgeStyle=orthogonalEdgeStyle;rounded=0;orthogonalLoop=1;jettySize=auto;html=1;" edge="1" parent="1" source="YFodK5tRQj8HDyV5Xvsf-171" target="YFodK5tRQj8HDyV5Xvsf-169">
          <mxGeometry relative="1" as="geometry" />
        </mxCell>
        <mxCell id="YFodK5tRQj8HDyV5Xvsf-171" value="WEB" style="aspect=fixed;perimeter=ellipsePerimeter;html=1;align=center;shadow=0;dashed=0;fontColor=#4277BB;labelBackgroundColor=#ffffff;fontSize=12;spacingTop=3;image;image=img/lib/ibm/users/browser.svg;direction=south;" vertex="1" parent="1">
          <mxGeometry x="1460" y="180" width="60" height="60" as="geometry" />
        </mxCell>
        <mxCell id="YFodK5tRQj8HDyV5Xvsf-174" style="edgeStyle=orthogonalEdgeStyle;rounded=0;orthogonalLoop=1;jettySize=auto;html=1;exitX=1;exitY=0.75;exitDx=0;exitDy=0;entryX=1;entryY=0;entryDx=0;entryDy=0;" edge="1" parent="1" source="YFodK5tRQj8HDyV5Xvsf-170" target="YFodK5tRQj8HDyV5Xvsf-170">
          <mxGeometry relative="1" as="geometry" />
        </mxCell>
      </root>
    </mxGraphModel>
  </diagram>
</mxfile>
